# xmcd
#
# Track frame offsets: 
#        150
#        17751
#        39118
#        53003
#        74089
#        93032
#        119564
#        156855
#
# Disc length: 2342 seconds
#
# Revision: 0
# Processed by: cddbd v1.5.2PL0 Copyright (c) Steve Scherf et al.
# Submitted via: ExactAudioCopy v0.99pb1
#
DISCID=60092408
DTITLE=Stevie Ray Vaughan - Peace In The Valley
DYEAR=1990
DGENRE=Blues
TTITLE0=Tightrope
TTITLE1=The things I used to do
TTITLE2=Let me love you baby
TTITLE3=Leave my little girl alone
TTITLE4=(Look at) Little sister
TTITLE5=Wall of denail
TTITLE6=Riviera paradise
TTITLE7=Superstition
EXTD=
EXTT0=
EXTT1=
EXTT2=
EXTT3=
EXTT4=
EXTT5=
EXTT6=
EXTT7=
PLAYORDER=
